<?xml version="1.0" encoding="utf-8"?>
<!-- Generator: Adobe Illustrator 24.0.1, SVG Export Plug-In . SVG Version: 6.00 Build 0)  -->
<svg version="1.1" id="Layer_1" xmlns="http://www.w3.org/2000/svg" xmlns:xlink="http://www.w3.org/1999/xlink" x="0px" y="0px"
	 viewBox="0 0 142.9 92.9" style="enable-background:new 0 0 142.9 92.9;" xml:space="preserve">
<style type="text/css">
	.st0{fill:#EDEDED;}
</style>
<g>
	<g>
		<path class="st0" d="M34.3,18.7h37l3.8-18.5H19.7L0,92.7h55.5l3.8-18.5H22.6L34.3,18.7z M54.7,78.3l-2.2,10.6H14.9l-2.4-35.5
			L22.8,4.1h35.5l9.8,10.6H34.3h-3.1l-0.7,3.1L18.7,73.5l-1,4.8h4.8H54.7z"/>
		<path class="st0" d="M124.4,0l-7.9,37.2H98l7.9-37H87.4L67.7,92.9h18.5l7.9-37.2h18.5l-7.9,37.2h18.5L142.9,0H124.4z M120.1,88.8
			h-10.6l7-32.4l1-4.8h-4.8H94.1H91l-0.7,3.1l-7.2,34.1h-0.2l-2.6-35.8l10.3-49h10.6l-7,32.4l-1,4.8H98h18.5h3.1l0.7-3.1l7.2-33.9
			h0.2l8.4,9.1L120.1,88.8z"/>
	</g>
</g>
</svg>
